<svg width="22" height="23" viewBox="0 0 22 23" fill="none" xmlns="http://www.w3.org/2000/svg">
<g id="users">
<g id="Oval">
<ellipse cx="8.24967" cy="6.57096" rx="3.66667" ry="3.66667" stroke="#8B909A" stroke-width="1.75" stroke-linecap="round" stroke-linejoin="round"/>
<ellipse cx="8.24967" cy="6.57096" rx="3.66667" ry="3.66667" stroke="#8B909A" stroke-width="1.75" stroke-linecap="round" stroke-linejoin="round"/>
</g>
<g id="Path">
<path d="M2.75 19.4043V17.571C2.75 15.5459 4.39162 13.9043 6.41667 13.9043H10.0833C12.1084 13.9043 13.75 15.5459 13.75 17.571V19.4043" stroke="#8B909A" stroke-width="1.75" stroke-linecap="round" stroke-linejoin="round"/>
<path d="M2.75 19.4043V17.571C2.75 15.5459 4.39162 13.9043 6.41667 13.9043H10.0833C12.1084 13.9043 13.75 15.5459 13.75 17.571V19.4043" stroke="#8B909A" stroke-width="1.75" stroke-linecap="round" stroke-linejoin="round"/>
</g>
<g id="Path_2">
<path d="M14.667 3.02344C16.2894 3.43884 17.4242 4.90076 17.4242 6.57552C17.4242 8.25028 16.2894 9.7122 14.667 10.1276" stroke="#8B909A" stroke-width="1.75" stroke-linecap="round" stroke-linejoin="round"/>
<path d="M14.667 3.02344C16.2894 3.43884 17.4242 4.90076 17.4242 6.57552C17.4242 8.25028 16.2894 9.7122 14.667 10.1276" stroke="#8B909A" stroke-width="1.75" stroke-linecap="round" stroke-linejoin="round"/>
</g>
<g id="Path_3">
<path d="M19.25 19.4045V17.5712C19.2404 15.907 18.1113 14.458 16.5 14.042" stroke="#8B909A" stroke-width="1.75" stroke-linecap="round" stroke-linejoin="round"/>
<path d="M19.25 19.4045V17.5712C19.2404 15.907 18.1113 14.458 16.5 14.042" stroke="#8B909A" stroke-width="1.75" stroke-linecap="round" stroke-linejoin="round"/>
</g>
</g>
</svg>
